<svg xmlns="http://www.w3.org/2000/svg" xmlns:xlink="http://www.w3.org/1999/xlink" width="1920" zoomAndPan="magnify" viewBox="0 0 1440 809.999993" height="1080" preserveAspectRatio="xMidYMid meet" version="1.0"><defs><clipPath id="d6804e9a02"><path d="M 1325.652344 322 L 1440 322 L 1440 645.148438 L 1325.652344 645.148438 Z M 1325.652344 322 " clip-rule="nonzero"/></clipPath></defs><rect x="-144" width="1728" fill="#ffffff" y="-80.999999" height="971.999992" fill-opacity="1"/><rect x="-144" width="1728" fill="#faf4e4" y="-80.999999" height="971.999992" fill-opacity="1"/><g clip-path="url(#d6804e9a02)"><path fill="#f9f9f9" d="M 1500.21875 480.648438 C 1499.421875 481.296875 1498.664062 481.976562 1497.925781 482.667969 C 1498.355469 481.003906 1495.90625 479.9375 1494.738281 481.09375 C 1494.359375 481.472656 1494 481.871094 1493.636719 482.261719 C 1493.652344 482.179688 1493.675781 482.097656 1493.691406 482.019531 C 1494.042969 480.34375 1491.878906 478.6875 1490.578125 480.207031 C 1490.394531 480.421875 1490.210938 480.632812 1490.027344 480.847656 C 1490.160156 480.464844 1490.304688 480.089844 1490.429688 479.707031 C 1490.902344 479.238281 1491.386719 478.777344 1491.882812 478.328125 C 1493.484375 476.875 1491.507812 474.609375 1489.800781 475.34375 C 1489.570312 475.265625 1489.335938 475.214844 1489.09375 475.230469 C 1489.078125 474.636719 1488.808594 474.082031 1488.214844 473.726562 C 1487.4375 473.257812 1486.0625 473.472656 1485.667969 474.394531 C 1485.121094 475.667969 1484.574219 476.941406 1484.027344 478.210938 C 1483.625 478.261719 1483.246094 478.414062 1482.984375 478.714844 C 1478.796875 483.566406 1474.617188 488.425781 1470.421875 493.273438 C 1469.765625 494.03125 1469.675781 495.160156 1470.421875 495.90625 C 1471.097656 496.578125 1472.398438 496.671875 1473.058594 495.90625 C 1475.167969 493.46875 1477.269531 491.027344 1479.375 488.585938 C 1479.105469 489.121094 1478.839844 489.660156 1478.589844 490.207031 C 1478.453125 490.511719 1478.402344 490.816406 1478.402344 491.105469 C 1478.054688 491.925781 1477.722656 492.757812 1477.410156 493.597656 C 1476.695312 495.515625 1479.839844 496.910156 1480.753906 495.140625 C 1481.425781 495.511719 1482.273438 495.515625 1482.875 494.820312 C 1484.566406 492.863281 1486.253906 490.902344 1487.941406 488.945312 C 1487.710938 489.644531 1487.464844 490.339844 1487.210938 491.035156 C 1485.722656 493.683594 1484.484375 496.472656 1483.546875 499.382812 C 1482.90625 501.375 1485.976562 502.699219 1486.953125 500.816406 C 1487.414062 499.929688 1487.851562 499.027344 1488.277344 498.117188 C 1488.773438 498.875 1489.902344 499.285156 1490.738281 498.953125 C 1490.472656 500.019531 1490.3125 501.117188 1490.292969 502.242188 C 1490.269531 503.722656 1492.449219 504.878906 1493.472656 503.558594 C 1498.320312 497.308594 1501.6875 490.214844 1503.332031 482.460938 C 1503.738281 480.554688 1501.652344 479.480469 1500.21875 480.648438 Z M 1497.007812 490.183594 C 1496.351562 490.609375 1495.75 491.09375 1495.179688 491.609375 C 1495.996094 490.410156 1496.867188 489.261719 1497.816406 488.164062 C 1497.570312 488.835938 1497.3125 489.503906 1497.039062 490.164062 C 1497.03125 490.171875 1497.019531 490.175781 1497.007812 490.183594 Z M 1355.625 407.035156 C 1355.691406 406.921875 1355.761719 406.808594 1355.828125 406.691406 C 1356.292969 405.835938 1356.234375 404.886719 1355.222656 404.285156 C 1354.34375 403.769531 1352.90625 403.714844 1352.132812 404.433594 C 1351.429688 405.082031 1350.761719 405.746094 1350.082031 406.40625 C 1350.414062 405.746094 1350.75 405.085938 1351.078125 404.421875 C 1351.542969 403.488281 1350.566406 402.378906 1349.433594 402.132812 C 1348.097656 401.839844 1347.335938 402.640625 1346.539062 403.433594 C 1333.738281 416.175781 1337.832031 420.785156 1337.824219 420.800781 C 1337.640625 421.03125 1337.53125 421.265625 1337.488281 421.492188 C 1337.472656 421.527344 1337.453125 421.5625 1337.4375 421.597656 C 1336.746094 422.988281 1338.75 424.199219 1340.332031 423.890625 C 1349.195312 422.160156 1355.875 415.628906 1356.449219 408.460938 C 1356.5 407.824219 1356.152344 407.339844 1355.625 407.035156 Z M 1391.542969 443.859375 C 1392.851562 442.53125 1394.054688 441.136719 1395.175781 439.695312 C 1397.703125 437.683594 1399.882812 435.417969 1401.683594 432.933594 C 1402.386719 432.171875 1402.949219 431.320312 1403.34375 430.402344 C 1404.425781 428.566406 1405.332031 426.640625 1406.007812 424.609375 C 1406.601562 422.832031 1403.910156 421.453125 1402.425781 422.796875 C 1402.097656 423.089844 1401.785156 423.402344 1401.464844 423.703125 C 1402.566406 421.621094 1399.011719 419.828125 1397.71875 421.917969 C 1397.164062 422.851562 1396.578125 423.769531 1395.972656 424.679688 C 1395.394531 423.945312 1394.007812 423.511719 1393.113281 424.097656 C 1385.847656 428.851562 1383.550781 432.5625 1381.449219 440.28125 C 1380.941406 442.148438 1383.429688 443.304688 1385.035156 442.09375 C 1387.519531 440.21875 1386.851562 441.277344 1389.089844 439.136719 C 1389.070312 439.398438 1389.046875 439.65625 1389.039062 439.917969 C 1388.667969 440.625 1388.296875 441.332031 1387.957031 442.046875 C 1387.132812 443.765625 1390.199219 445.21875 1391.542969 443.859375 Z M 1392.054688 439.738281 C 1393.515625 437.195312 1395.328125 434.863281 1397.460938 432.851562 C 1397.433594 432.894531 1397.410156 432.941406 1397.382812 432.984375 C 1395.746094 435.339844 1393.964844 437.597656 1392.054688 439.738281 Z M 1470.792969 415.320312 C 1470.902344 415.21875 1471.007812 415.105469 1471.117188 415 C 1471.402344 416.253906 1473.015625 417.179688 1474.054688 416.203125 C 1474.511719 417.5 1476.332031 418.082031 1477.363281 416.578125 C 1477.761719 415.996094 1478.160156 415.414062 1478.554688 414.832031 C 1477.964844 415.90625 1477.34375 416.964844 1476.671875 417.984375 C 1475.429688 420.058594 1478.574219 421.851562 1479.886719 419.863281 C 1480.054688 419.585938 1480.246094 419.324219 1480.425781 419.054688 C 1480.6875 419.449219 1481.082031 419.765625 1481.507812 419.882812 C 1482.570312 420.175781 1483.421875 419.519531 1483.796875 418.582031 C 1484.582031 416.640625 1485.324219 414.679688 1486.105469 412.738281 C 1486.503906 411.746094 1485.671875 410.707031 1484.699219 410.4375 C 1485.726562 407.753906 1486.535156 404.988281 1487.066406 402.207031 C 1487.371094 400.597656 1485.902344 399.574219 1484.652344 400.003906 C 1484.667969 399.976562 1484.679688 399.945312 1484.695312 399.914062 C 1485.058594 399.089844 1484.980469 398.136719 1484.285156 397.554688 C 1484.476562 397.191406 1484.679688 396.832031 1484.867188 396.464844 C 1485.78125 394.671875 1483.433594 392.558594 1481.941406 394.207031 C 1479.953125 396.40625 1478.1875 398.78125 1476.644531 401.289062 C 1476.238281 401.277344 1475.839844 401.316406 1475.449219 401.375 C 1475.988281 400.488281 1476.558594 399.617188 1477.195312 398.796875 C 1477.808594 398 1477.96875 396.9375 1477.195312 396.164062 C 1476.554688 395.519531 1475.179688 395.363281 1474.5625 396.164062 C 1470.539062 401.363281 1468.15625 407.445312 1467.613281 414.003906 C 1467.472656 415.695312 1469.699219 416.351562 1470.792969 415.320312 Z M 1564.886719 370.394531 C 1566.09375 368.988281 1567.300781 367.582031 1568.507812 366.175781 C 1569.046875 366.46875 1569.707031 366.523438 1570.289062 366.171875 C 1573.449219 364.261719 1575.59375 361.179688 1576.386719 357.648438 C 1577.183594 356.496094 1577.984375 355.34375 1578.777344 354.1875 C 1579.96875 352.460938 1577.230469 350.320312 1575.851562 351.929688 C 1575.226562 352.660156 1574.601562 353.386719 1573.976562 354.113281 C 1572.542969 354.675781 1571.171875 355.355469 1569.875 356.136719 C 1569.847656 355.554688 1569.546875 354.996094 1569.109375 354.628906 C 1569.535156 354.066406 1569.992188 353.527344 1570.480469 353.019531 C 1572.132812 351.28125 1569.503906 348.644531 1567.84375 350.382812 C 1565.523438 352.820312 1563.820312 355.691406 1562.773438 358.78125 C 1560.5625 361.753906 1559.1875 365.320312 1558.886719 369.074219 C 1558.804688 370.078125 1559.800781 370.9375 1560.75 370.9375 C 1561.332031 370.9375 1561.800781 370.683594 1562.125 370.292969 C 1562.792969 371.050781 1564.214844 371.175781 1564.886719 370.394531 Z M 1535.761719 422.96875 C 1535.695312 423.121094 1535.632812 423.277344 1535.566406 423.429688 C 1535.007812 424.796875 1534.289062 426.074219 1533.464844 427.277344 C 1534.164062 425.800781 1534.800781 424.296875 1535.347656 422.761719 C 1535.65625 421.898438 1535.070312 420.886719 1534.269531 420.566406 C 1534.125 420.507812 1533.992188 420.5 1533.851562 420.476562 C 1533.867188 420.445312 1533.886719 420.414062 1533.902344 420.386719 C 1534.832031 418.585938 1532.464844 416.492188 1530.976562 418.128906 C 1530.085938 419.105469 1529.269531 420.132812 1528.484375 421.179688 C 1528.398438 421.011719 1528.296875 420.851562 1528.148438 420.707031 C 1527.496094 420.050781 1526.148438 419.917969 1525.515625 420.707031 C 1521.730469 425.398438 1518.722656 430.507812 1516.445312 436.089844 C 1516.140625 436.839844 1516.652344 437.8125 1517.300781 438.195312 C 1518.070312 438.644531 1518.902344 438.425781 1519.558594 437.902344 C 1520.210938 437.382812 1520.847656 436.839844 1521.472656 436.292969 C 1521.285156 437.136719 1521.113281 437.988281 1520.980469 438.851562 C 1520.851562 439.683594 1521.066406 440.503906 1521.835938 440.957031 C 1522.546875 441.371094 1523.511719 441.25 1524.09375 440.664062 C 1525.097656 439.652344 1526.046875 438.582031 1526.957031 437.476562 C 1527.226562 437.464844 1527.492188 437.414062 1527.746094 437.277344 C 1528.824219 436.699219 1529.832031 436.03125 1530.796875 435.3125 C 1530.824219 435.886719 1531.089844 436.425781 1531.671875 436.765625 C 1532.453125 437.222656 1533.824219 437.027344 1534.21875 436.097656 C 1535.816406 432.351562 1537.382812 428.59375 1538.980469 424.851562 C 1538.972656 424.847656 1538.96875 424.847656 1538.964844 424.84375 C 1539.03125 424.695312 1539.105469 424.554688 1539.167969 424.40625 C 1539.957031 422.46875 1536.589844 421.03125 1535.761719 422.96875 Z M 1604.421875 432.019531 C 1605.78125 430.179688 1607.054688 428.304688 1608.261719 426.394531 C 1611.425781 422.601562 1613.78125 418.253906 1615.257812 413.429688 C 1615.324219 413.214844 1615.347656 413.019531 1615.347656 412.832031 C 1615.75 411.878906 1616.140625 410.921875 1616.515625 409.953125 C 1617.253906 408.054688 1614.664062 407.066406 1613.402344 408.140625 C 1612.910156 408.5625 1612.433594 409.007812 1611.953125 409.449219 C 1611.695312 408.652344 1610.808594 408.253906 1609.964844 408.332031 C 1610.023438 408.082031 1610.09375 407.835938 1610.152344 407.582031 C 1610.453125 406.214844 1609 404.824219 1607.769531 405.25 C 1607.820312 405.15625 1607.875 405.066406 1607.929688 404.972656 C 1609.140625 402.898438 1605.921875 401.019531 1604.710938 403.09375 C 1601.007812 409.433594 1597.289062 415.765625 1593.59375 422.113281 C 1592.5625 423.882812 1595.140625 426.050781 1596.519531 424.371094 C 1598.078125 422.464844 1599.648438 420.566406 1601.214844 418.667969 C 1600.605469 419.914062 1601.363281 420.992188 1602.367188 421.277344 C 1601.464844 422.796875 1600.632812 424.355469 1599.890625 425.945312 C 1599.25 427.324219 1600.214844 428.644531 1601.421875 428.71875 C 1601.410156 428.960938 1601.453125 429.199219 1601.546875 429.425781 C 1601.4375 429.664062 1601.3125 429.898438 1601.203125 430.136719 C 1600.214844 432.335938 1602.992188 433.953125 1604.421875 432.019531 Z M 1417.351562 375.925781 C 1417.480469 375.976562 1417.613281 375.984375 1417.742188 376.007812 C 1417.441406 377.859375 1417.496094 379.800781 1418.007812 381.832031 C 1418.09375 382.167969 1418.261719 382.4375 1418.480469 382.648438 C 1418.359375 384.191406 1420.261719 385.183594 1421.644531 384.085938 C 1423.847656 382.34375 1425.84375 380.382812 1427.660156 378.273438 C 1432.332031 374.148438 1435.777344 368.726562 1437.496094 362.628906 C 1437.855469 361.371094 1436.847656 360.394531 1435.761719 360.324219 C 1436.785156 358.855469 1435.125 356.464844 1433.34375 357.628906 C 1431.898438 358.570312 1430.386719 359.613281 1428.890625 360.753906 C 1428.980469 360.03125 1428.609375 359.253906 1427.980469 358.886719 C 1427.074219 358.355469 1425.980469 358.710938 1425.429688 359.554688 C 1424.832031 360.476562 1424.230469 361.394531 1423.628906 362.3125 C 1423.078125 360.875 1420.726562 360.609375 1420.09375 362.457031 C 1418.808594 366.210938 1417.558594 369.972656 1416.273438 373.726562 C 1415.976562 374.59375 1416.542969 375.597656 1417.351562 375.925781 Z M 1421.382812 376.875 C 1421.410156 376.917969 1421.433594 376.96875 1421.464844 377.011719 C 1421.421875 377.082031 1421.382812 377.148438 1421.339844 377.21875 C 1421.351562 377.101562 1421.371094 376.988281 1421.382812 376.875 Z M 1422.089844 374.117188 C 1422.875 372.089844 1424.179688 370.203125 1425.753906 368.476562 C 1425.410156 369.496094 1424.953125 370.460938 1424.394531 371.371094 C 1423.625 372.285156 1422.855469 373.203125 1422.089844 374.117188 Z M 1429.667969 365.085938 C 1429.628906 365.03125 1429.589844 364.980469 1429.542969 364.933594 C 1429.800781 364.726562 1430.054688 364.515625 1430.3125 364.316406 C 1430.097656 364.574219 1429.882812 364.828125 1429.667969 365.085938 Z M 1513.042969 329.96875 C 1512.089844 329.414062 1511.101562 329.832031 1510.496094 330.640625 C 1510.050781 331.230469 1509.644531 331.84375 1509.226562 332.449219 C 1509.222656 332.308594 1509.238281 332.167969 1509.230469 332.03125 C 1509.210938 331.609375 1509.050781 331.234375 1508.816406 330.925781 C 1508.960938 330.484375 1509.128906 330.046875 1509.25 329.597656 C 1509.699219 327.957031 1507.917969 326.800781 1506.582031 327.488281 C 1506.992188 326.722656 1507.402344 325.960938 1507.8125 325.195312 C 1508.949219 323.085938 1505.734375 321.199219 1504.597656 323.316406 C 1500.738281 330.492188 1496.863281 337.65625 1493.011719 344.835938 C 1492.144531 346.453125 1493.90625 348.34375 1495.558594 347.386719 C 1497.21875 346.425781 1498.777344 345.296875 1500.210938 344.035156 C 1500.257812 344.511719 1500.316406 344.988281 1500.398438 345.460938 C 1500.511719 346.113281 1500.972656 346.511719 1501.527344 346.6875 C 1501.40625 347.09375 1501.375 347.535156 1501.484375 347.980469 C 1501.742188 349.042969 1502.648438 349.78125 1503.746094 349.8125 C 1504.84375 349.84375 1505.785156 349.28125 1506.457031 348.441406 C 1507.71875 346.871094 1508.546875 344.800781 1509.355469 342.96875 C 1510.246094 340.941406 1511.035156 338.875 1511.707031 336.765625 C 1511.835938 336.355469 1511.769531 335.910156 1511.585938 335.519531 C 1512.265625 334.503906 1512.972656 333.503906 1513.710938 332.519531 C 1514.316406 331.714844 1513.839844 330.4375 1513.042969 329.96875 Z M 1452 454.960938 C 1452.652344 452.832031 1449.761719 451.878906 1448.605469 453.527344 C 1447.597656 454.960938 1446.519531 456.347656 1445.386719 457.683594 C 1444.972656 457.210938 1444.515625 456.785156 1444.015625 456.40625 C 1444.085938 456.253906 1444.152344 456.097656 1444.222656 455.945312 C 1444.65625 455.148438 1445.089844 454.351562 1445.523438 453.558594 C 1446.695312 451.417969 1443.6875 449.757812 1442.316406 451.675781 C 1442.015625 452.097656 1441.730469 452.527344 1441.441406 452.957031 C 1441.363281 452.84375 1441.277344 452.734375 1441.179688 452.636719 C 1441.246094 452.582031 1441.308594 452.523438 1441.375 452.46875 C 1442.144531 451.824219 1442.039062 450.5 1441.375 449.832031 C 1440.609375 449.066406 1439.519531 449.1875 1438.746094 449.832031 C 1436.976562 451.304688 1435.40625 452.980469 1434.03125 454.796875 C 1431.332031 455.550781 1428.796875 457.027344 1426.558594 458.621094 C 1425.742188 459.207031 1425.355469 460.246094 1425.894531 461.171875 C 1426.183594 461.671875 1426.769531 462.03125 1427.371094 462.09375 C 1425.855469 463.925781 1424.480469 465.871094 1423.320312 467.929688 C 1422.808594 468.832031 1423.132812 469.921875 1423.984375 470.476562 C 1425.394531 471.390625 1426.957031 472.070312 1428.589844 472.539062 C 1428.96875 472.78125 1429.417969 472.898438 1429.851562 472.851562 C 1430.136719 472.910156 1430.421875 472.972656 1430.710938 473.019531 C 1430.679688 473.09375 1430.644531 473.167969 1430.613281 473.246094 C 1429.816406 475.214844 1433.015625 476.503906 1434.011719 474.679688 C 1434.277344 474.195312 1434.542969 473.707031 1434.808594 473.21875 C 1435.9375 473.148438 1437.058594 472.960938 1438.148438 472.671875 C 1437.914062 473.117188 1437.65625 473.550781 1437.4375 474.007812 C 1436.597656 475.78125 1438.890625 477.988281 1440.355469 476.265625 C 1442.707031 473.503906 1444.773438 470.539062 1446.570312 467.429688 C 1446.742188 467.25 1446.898438 467.0625 1447.074219 466.890625 C 1447.503906 466.46875 1447.660156 465.988281 1447.625 465.53125 C 1449.410156 462.164062 1450.882812 458.632812 1452 454.960938 Z M 1438.222656 458.015625 C 1437.121094 459.820312 1436.089844 461.664062 1435.105469 463.535156 C 1434.230469 464.546875 1433.304688 465.515625 1432.320312 466.425781 C 1433.023438 463.898438 1434.089844 461.488281 1435.46875 459.265625 C 1435.984375 458.84375 1436.503906 458.433594 1437.039062 458.039062 C 1437.4375 458.003906 1437.832031 457.996094 1438.222656 458.015625 Z M 1428.101562 468.449219 C 1427.90625 468.367188 1427.71875 468.269531 1427.527344 468.175781 C 1427.816406 467.722656 1428.121094 467.277344 1428.429688 466.832031 C 1428.308594 467.367188 1428.199219 467.90625 1428.101562 468.449219 Z M 1442.871094 460.445312 C 1442.875 460.449219 1442.875 460.449219 1442.878906 460.453125 C 1442.105469 461.253906 1441.316406 462.03125 1440.496094 462.78125 C 1440.691406 462.417969 1440.890625 462.058594 1441.085938 461.699219 C 1441.496094 461.074219 1441.902344 460.445312 1442.277344 459.796875 C 1442.480469 460 1442.683594 460.203125 1442.871094 460.445312 Z M 1442.988281 465.5 C 1442.441406 466.199219 1441.699219 466.824219 1440.859375 467.363281 C 1441.582031 466.757812 1442.292969 466.136719 1442.988281 465.5 Z M 1578.257812 472.21875 C 1578.230469 472.125 1578.191406 472.039062 1578.160156 471.945312 C 1578.488281 471.300781 1578.816406 470.65625 1579.144531 470.007812 C 1579.5625 469.183594 1579.433594 468.179688 1578.664062 467.605469 C 1578.226562 467.277344 1577.59375 467.136719 1577.035156 467.261719 C 1576.722656 466.199219 1575.242188 465.777344 1574.355469 466.324219 C 1574.011719 466.53125 1573.679688 466.761719 1573.355469 467.003906 C 1573.234375 466.910156 1573.105469 466.828125 1572.96875 466.773438 C 1572.800781 466.707031 1572.640625 466.691406 1572.480469 466.667969 C 1572.941406 465.953125 1573.398438 465.238281 1573.855469 464.523438 C 1575.152344 462.5 1571.929688 460.628906 1570.636719 462.644531 C 1567.683594 467.257812 1564.726562 471.878906 1561.773438 476.496094 C 1560.800781 478.007812 1562.785156 480.136719 1564.320312 479.042969 C 1564.796875 478.703125 1565.238281 478.328125 1565.695312 477.972656 C 1565.910156 478.472656 1566.195312 478.90625 1566.519531 479.289062 C 1566.402344 479.613281 1566.292969 479.9375 1566.179688 480.265625 C 1565.578125 481.96875 1568.117188 483.511719 1569.292969 482.078125 C 1569.457031 481.875 1569.621094 481.671875 1569.785156 481.472656 C 1570.304688 482.199219 1570.933594 482.863281 1571.699219 483.4375 C 1574.109375 485.25 1577.523438 485.851562 1580.230469 484.335938 C 1582.820312 482.886719 1583.703125 479.859375 1583.039062 477.085938 C 1582.441406 474.578125 1580.621094 472.664062 1578.257812 472.21875 Z M 1579.476562 479.617188 C 1579.300781 480.21875 1579.09375 480.660156 1578.542969 481.007812 C 1577.886719 481.421875 1577.140625 481.554688 1576.378906 481.472656 C 1575.960938 481.425781 1575.53125 481.308594 1575.109375 481.136719 C 1576.800781 480.066406 1577.945312 478.191406 1578.378906 476.175781 C 1578.84375 476.605469 1579.175781 477.144531 1579.347656 477.707031 C 1579.550781 478.367188 1579.621094 479.117188 1579.476562 479.617188 Z M 1639.816406 481.5625 C 1639.03125 481.601562 1638.257812 481.746094 1637.496094 481.941406 C 1637.21875 480.808594 1635.8125 479.914062 1634.753906 480.695312 C 1633.714844 481.464844 1632.734375 482.296875 1631.808594 483.175781 C 1631.8125 483.125 1631.824219 483.074219 1631.828125 483.023438 C 1631.933594 481.636719 1630.15625 480.675781 1629.023438 481.417969 C 1625.875 483.472656 1623.503906 486.570312 1622.285156 490.078125 C 1621.191406 492.253906 1620.355469 494.5625 1619.847656 496.953125 C 1619.539062 498.414062 1621.152344 500.039062 1622.585938 499.054688 C 1622.730469 498.957031 1622.855469 498.839844 1623 498.734375 C 1622.875 499.316406 1622.765625 499.898438 1622.679688 500.492188 C 1622.4375 502.136719 1623.859375 503.324219 1625.414062 502.59375 C 1633.167969 498.964844 1639.082031 492.0625 1641.613281 483.917969 C 1641.960938 482.800781 1641.007812 481.503906 1639.816406 481.5625 Z M 1634.3125 489.203125 C 1634.851562 488.40625 1635.339844 487.582031 1635.785156 486.730469 C 1636.101562 486.503906 1636.433594 486.308594 1636.78125 486.132812 C 1636.183594 487.425781 1635.484375 488.664062 1634.695312 489.835938 C 1634.613281 489.609375 1634.492188 489.394531 1634.3125 489.203125 Z M 1627.261719 497.269531 C 1627.398438 496.820312 1627.542969 496.375 1627.703125 495.9375 C 1628.890625 495.101562 1630.007812 494.179688 1631.035156 493.15625 C 1631.292969 493.277344 1631.570312 493.347656 1631.863281 493.371094 C 1630.480469 494.828125 1628.9375 496.140625 1627.261719 497.269531 Z M 1344.855469 480.429688 C 1344.71875 480.421875 1344.585938 480.429688 1344.449219 480.429688 C 1344.394531 480.007812 1344.222656 479.601562 1343.933594 479.3125 C 1343.371094 478.753906 1342.628906 478.667969 1341.96875 478.921875 C 1339.097656 478.144531 1335.289062 480.171875 1332.914062 482.046875 C 1328.859375 485.257812 1326.449219 489.976562 1325.863281 495.074219 C 1325.75 496.09375 1326.8125 496.914062 1327.726562 496.9375 C 1328.140625 496.949219 1328.550781 496.941406 1328.964844 496.929688 C 1328.808594 497.578125 1328.683594 498.230469 1328.609375 498.886719 C 1328.519531 499.714844 1328.605469 500.5625 1328.867188 501.339844 C 1328.746094 502.117188 1328.941406 503.039062 1329.722656 503.429688 C 1332.800781 504.960938 1336.332031 504.714844 1339.328125 503.203125 C 1339.648438 503.8125 1340.347656 504.25 1341.011719 504.25 C 1342.097656 504.25 1342.78125 503.390625 1342.875 502.386719 C 1342.949219 501.609375 1343.097656 500.84375 1343.308594 500.101562 C 1343.988281 499.324219 1344.578125 498.480469 1345.09375 497.589844 C 1346.164062 496.347656 1346.980469 494.878906 1347.453125 493.222656 C 1347.589844 492.746094 1347.523438 492.3125 1347.339844 491.945312 C 1347.375 491.8125 1347.414062 491.683594 1347.449219 491.550781 C 1348.296875 488.109375 1350.417969 480.839844 1344.855469 480.429688 Z M 1342.117188 485.136719 C 1342.175781 485.601562 1342.210938 486.023438 1342.234375 486.292969 C 1342.246094 486.433594 1342.246094 486.574219 1342.253906 486.714844 C 1341.949219 487.070312 1341.679688 487.445312 1341.40625 487.820312 C 1339.886719 489.308594 1338.109375 490.53125 1336.171875 491.429688 C 1336.742188 490.386719 1337.363281 489.371094 1338.042969 488.394531 C 1339.261719 487.144531 1340.628906 486.039062 1342.117188 485.136719 Z M 1338.507812 494.402344 C 1338.253906 495.601562 1338.128906 496.824219 1338.136719 498.046875 C 1337.714844 498.492188 1337.269531 498.917969 1336.792969 499.304688 C 1335.957031 499.984375 1334.960938 500.511719 1333.875 500.632812 C 1333.480469 500.679688 1333.160156 500.667969 1332.816406 500.5625 C 1333.136719 499.058594 1333.535156 497.582031 1334.046875 496.152344 C 1335.59375 495.730469 1337.085938 495.140625 1338.507812 494.402344 Z M 1333.597656 486.46875 C 1334.542969 485.460938 1335.605469 484.597656 1336.773438 483.875 C 1336.179688 484.589844 1335.621094 485.332031 1335.085938 486.089844 C 1334.855469 486.335938 1334.621094 486.578125 1334.398438 486.835938 C 1332.832031 488.65625 1331.398438 490.792969 1330.332031 493.074219 C 1330.207031 493.089844 1330.085938 493.121094 1329.960938 493.132812 C 1330.589844 490.652344 1331.851562 488.332031 1333.597656 486.46875 Z M 1414.003906 537.894531 C 1413.464844 539.667969 1415.84375 541.042969 1417.117188 539.707031 C 1418.050781 538.726562 1419.03125 537.800781 1420.03125 536.898438 C 1420.523438 537.636719 1421.457031 538.0625 1422.4375 537.46875 C 1424.734375 536.082031 1426.410156 533.777344 1426.855469 531.113281 C 1427.097656 529.65625 1425.597656 528.015625 1424.117188 529.007812 C 1423.714844 529.277344 1423.324219 529.570312 1422.925781 529.851562 C 1423.9375 528.433594 1424.742188 526.878906 1425.296875 525.222656 C 1425.480469 525.015625 1425.65625 524.804688 1425.84375 524.597656 C 1426.550781 523.835938 1426.453125 522.90625 1425.984375 522.242188 C 1426.046875 521.78125 1426.117188 521.320312 1426.140625 520.851562 C 1426.203125 519.59375 1424.90625 518.792969 1423.785156 519.054688 C 1421.136719 519.667969 1418.636719 520.683594 1416.324219 522.015625 C 1416.269531 522.039062 1416.210938 522.058594 1416.15625 522.085938 C 1417.140625 521.492188 1418.167969 520.96875 1419.238281 520.539062 C 1420.171875 520.164062 1420.828125 519.296875 1420.539062 518.246094 C 1420.296875 517.359375 1419.1875 516.566406 1418.246094 516.945312 C 1410.417969 520.09375 1404.300781 526.777344 1402.042969 534.9375 C 1401.769531 535.914062 1402.375 536.949219 1403.34375 537.226562 C 1403.464844 537.261719 1403.589844 537.277344 1403.710938 537.308594 C 1403.578125 538.34375 1404.53125 539.398438 1405.570312 539.355469 C 1408.65625 539.230469 1411.640625 538.398438 1414.308594 536.984375 C 1414.210938 537.289062 1414.097656 537.585938 1414.003906 537.894531 Z M 1406.203125 520.207031 C 1406.617188 520.050781 1407.039062 519.929688 1407.46875 519.914062 C 1407.648438 519.90625 1407.902344 519.914062 1408.109375 519.960938 C 1405.972656 521.800781 1403.652344 523.414062 1401.195312 524.789062 C 1401.652344 523.964844 1402.214844 523.199219 1402.863281 522.527344 C 1403.910156 521.664062 1405.027344 520.886719 1406.203125 520.207031 Z M 1488.261719 554.46875 C 1487.726562 552.21875 1485.683594 550.808594 1483.425781 550.75 C 1483.066406 550.742188 1482.707031 550.773438 1482.347656 550.820312 C 1484.039062 549.554688 1482.242188 546.652344 1480.230469 547.765625 C 1475.855469 550.1875 1472.230469 553.683594 1469.722656 558.015625 C 1468.484375 560.15625 1467.519531 562.476562 1466.933594 564.878906 C 1466.632812 566.109375 1466.367188 567.40625 1466.285156 568.667969 C 1466.1875 570.089844 1467.253906 570.96875 1468.355469 571.699219 C 1471.707031 573.9375 1476.523438 573.253906 1479.671875 570.988281 C 1483.28125 568.394531 1485.835938 564.109375 1487.515625 560.054688 C 1488.238281 558.3125 1488.707031 556.34375 1488.261719 554.46875 Z M 1478.566406 560.449219 C 1477.234375 562.714844 1475.433594 564.472656 1473.265625 565.664062 C 1473.972656 564.617188 1474.761719 563.628906 1475.632812 562.722656 C 1476.453125 561.871094 1477.496094 560.648438 1478.625 560.210938 C 1478.65625 560.199219 1478.722656 560.171875 1478.796875 560.140625 C 1478.710938 560.234375 1478.632812 560.339844 1478.566406 560.449219 Z M 1484.628906 556.851562 C 1484.324219 558.484375 1483.53125 560.058594 1482.664062 561.539062 C 1482.738281 561.148438 1482.789062 560.753906 1482.785156 560.347656 C 1482.769531 557.960938 1480.84375 556.1875 1478.523438 556.441406 C 1479.464844 555.828125 1480.457031 555.304688 1481.488281 554.902344 C 1482.273438 554.59375 1483.585938 554.125 1484.316406 554.785156 C 1484.832031 555.25 1484.765625 556.136719 1484.628906 556.851562 Z M 1554.410156 515.722656 C 1554.707031 514.964844 1554.980469 514.199219 1555.207031 513.410156 C 1555.660156 511.828125 1553.867188 510.515625 1552.46875 511.308594 C 1551.785156 511.695312 1551.132812 512.128906 1550.5 512.585938 C 1550.144531 512.457031 1549.765625 512.355469 1549.339844 512.316406 C 1548.410156 512.234375 1547.570312 512.433594 1546.796875 512.8125 C 1547.003906 512.484375 1547.203125 512.152344 1547.417969 511.828125 C 1548.757812 509.832031 1545.53125 507.964844 1544.203125 509.949219 C 1540.4375 515.558594 1538.03125 521.777344 1537.117188 528.480469 C 1537.050781 528.980469 1537.183594 529.558594 1537.460938 530.023438 C 1537.207031 531.097656 1536.984375 532.179688 1536.804688 533.273438 C 1536.542969 534.878906 1538.015625 536.160156 1539.542969 535.378906 C 1540.410156 534.933594 1541.25 534.453125 1542.074219 533.945312 C 1542.832031 535.429688 1544.183594 536.40625 1546.472656 536.257812 C 1546.578125 536.25 1546.683594 536.230469 1546.789062 536.21875 C 1547.339844 537.457031 1549.261719 538.039062 1550.089844 536.503906 C 1550.464844 535.8125 1550.8125 535.113281 1551.144531 534.40625 C 1551.753906 533.972656 1552.328125 533.5 1552.847656 533.007812 C 1554.769531 531.191406 1556.699219 528.972656 1557.792969 526.542969 C 1559.535156 522.675781 1558.476562 517.285156 1554.410156 515.722656 Z M 1545.160156 531.816406 C 1546.816406 530.554688 1548.375 529.171875 1549.800781 527.65625 C 1549.351562 529.097656 1548.8125 530.511719 1548.203125 531.890625 C 1547.773438 532.125 1547.328125 532.316406 1546.863281 532.433594 C 1545.984375 532.65625 1545.453125 532.378906 1545.160156 531.816406 Z M 1554.410156 525.027344 C 1554.355469 525.148438 1554.277344 525.257812 1554.214844 525.375 C 1554.464844 524.269531 1554.679688 523.152344 1554.84375 522.03125 C 1554.957031 523.074219 1554.796875 524.1875 1554.410156 525.027344 Z M 1617.871094 544.527344 C 1617.753906 543.105469 1615.933594 542.230469 1614.269531 542.921875 C 1610.21875 544.605469 1606.773438 547.066406 1604.140625 549.980469 C 1600.34375 552.585938 1597.492188 555.894531 1595.984375 559.71875 C 1595.558594 560.796875 1596.75 562.191406 1598.292969 562.078125 C 1598.394531 562.070312 1598.496094 562.050781 1598.601562 562.042969 C 1598.519531 563.027344 1598.511719 564.019531 1598.605469 565.007812 C 1598.710938 566.109375 1600.070312 567.257812 1601.636719 566.804688 C 1608.121094 564.933594 1612.8125 560.128906 1613.929688 554.886719 C 1616.648438 551.921875 1618.179688 548.304688 1617.871094 544.527344 Z M 1597.484375 563.433594 C 1597.378906 563.328125 1597.257812 563.234375 1597.125 563.152344 C 1597.738281 562.03125 1598.472656 560.953125 1599.332031 559.9375 C 1599.542969 559.761719 1599.753906 559.585938 1599.972656 559.421875 C 1600.25 559.25 1600.523438 559.078125 1600.8125 558.917969 C 1600.878906 558.882812 1600.933594 558.839844 1600.996094 558.800781 C 1601.074219 559.476562 1601.070312 560.160156 1600.988281 560.84375 C 1599.976562 561.828125 1598.796875 562.707031 1597.484375 563.433594 Z M 1595.171875 569.183594 C 1595.203125 568.921875 1595.242188 568.664062 1595.285156 568.40625 C 1595.914062 568.222656 1596.53125 568.015625 1597.136719 567.789062 C 1596.542969 568.304688 1595.886719 568.769531 1595.171875 569.183594 Z M 1539.210938 595.003906 C 1538.050781 595.746094 1536.972656 596.617188 1536.003906 597.59375 C 1536.617188 596.148438 1537.226562 594.695312 1537.863281 593.257812 C 1538.265625 592.335938 1538.132812 591.257812 1537.195312 590.707031 C 1536.402344 590.246094 1535.050781 590.449219 1534.644531 591.375 C 1533.492188 593.996094 1532.417969 596.648438 1531.242188 599.261719 C 1530.214844 601.542969 1528.933594 603.828125 1528.21875 606.234375 C 1527.628906 608.21875 1527.527344 610.65625 1529.085938 612.242188 C 1531.0625 614.25 1533.886719 613.507812 1536.121094 612.4375 C 1540.492188 610.34375 1543.90625 606.328125 1545.445312 601.753906 C 1546.085938 599.851562 1546.363281 597.628906 1545.316406 595.808594 C 1543.972656 593.476562 1541.210938 593.722656 1539.210938 595.003906 Z M 1516.804688 590.035156 C 1517.191406 589.535156 1517.609375 589.050781 1518.0625 588.589844 C 1518.152344 588.519531 1518.242188 588.441406 1518.332031 588.371094 C 1518.265625 588.65625 1518.183594 588.941406 1518.085938 589.214844 C 1517.660156 589.488281 1517.230469 589.761719 1516.804688 590.035156 Z M 1412.410156 593.484375 C 1412.402344 593.488281 1412.398438 593.492188 1412.390625 593.5 C 1412.058594 593.21875 1411.699219 592.984375 1411.324219 592.785156 C 1411.449219 592.441406 1411.59375 592.105469 1411.71875 591.757812 C 1412.175781 590.453125 1410.726562 589.011719 1409.425781 589.464844 C 1408.605469 589.753906 1407.8125 590.097656 1407.039062 590.476562 C 1406.894531 590.226562 1406.6875 590 1406.394531 589.828125 C 1405.609375 589.367188 1404.246094 589.566406 1403.847656 590.496094 C 1402.652344 593.269531 1399.847656 594.753906 1397.628906 596.613281 C 1395.425781 598.453125 1394.007812 600.753906 1394.058594 603.703125 C 1394.078125 604.933594 1394.386719 606.28125 1395.023438 607.394531 C 1394.9375 608.652344 1395.042969 609.898438 1395.46875 611.035156 C 1396.492188 613.765625 1399.179688 615.3125 1402.058594 615.105469 C 1405.085938 614.886719 1407.488281 613.121094 1409.328125 610.804688 C 1411.28125 608.34375 1413.046875 605.660156 1414.03125 602.65625 C 1414.527344 601.152344 1414.789062 599.464844 1414.609375 597.859375 C 1414.960938 597.03125 1415.265625 596.175781 1415.523438 595.296875 C 1416.085938 593.371094 1413.761719 592.378906 1412.410156 593.484375 Z M 1408.644531 591.695312 C 1408.402344 592.101562 1408.144531 592.496094 1407.890625 592.894531 C 1407.550781 593.175781 1407.207031 593.457031 1406.867188 593.738281 C 1407.296875 591.917969 1408.222656 590.226562 1409.703125 588.96875 C 1409.902344 588.796875 1410.132812 588.632812 1410.371094 588.476562 C 1409.832031 589.570312 1409.269531 590.648438 1408.644531 591.695312 Z M 1407.691406 603.035156 C 1406.207031 603.484375 1404.316406 603.300781 1403.683594 601.671875 C 1403.671875 601.648438 1403.667969 601.617188 1403.660156 601.59375 C 1403.820312 601.59375 1403.976562 601.582031 1404.128906 601.566406 C 1404.582031 602.097656 1405.257812 602.429688 1405.996094 602.167969 C 1408.316406 601.34375 1410.4375 600.179688 1412.316406 598.742188 C 1412.25 598.835938 1412.183594 598.9375 1412.117188 599.035156 C 1411 600.617188 1409.628906 602.449219 1407.691406 603.035156 Z M 1358.316406 555.589844 C 1356.113281 554.847656 1353.800781 555.875 1351.785156 557.269531 C 1351.039062 556.726562 1350.105469 556.902344 1349.390625 557.464844 C 1346.261719 559.925781 1343.597656 563.042969 1341.46875 566.402344 C 1340.386719 568.109375 1339.28125 570.003906 1338.648438 571.933594 C 1338.113281 573.566406 1339.527344 575.109375 1340.929688 576.046875 C 1341.734375 577.3125 1343.179688 578.042969 1344.644531 578.273438 C 1345.703125 578.4375 1346.757812 578.394531 1347.78125 578.203125 C 1348.71875 578.84375 1350.390625 578.394531 1350.742188 577.183594 C 1352.300781 576.394531 1353.71875 575.289062 1354.859375 573.992188 C 1357.804688 570.65625 1359.59375 566.449219 1361.035156 562.289062 C 1361.226562 561.738281 1361.113281 561.246094 1360.847656 560.851562 C 1361.214844 558.585938 1360.84375 556.4375 1358.316406 555.589844 Z M 1344.039062 573.464844 C 1344.042969 573.4375 1344.035156 573.421875 1344.042969 573.394531 C 1344.285156 572.214844 1344.945312 571.003906 1345.488281 569.941406 C 1346.550781 567.859375 1347.863281 565.949219 1349.445312 564.246094 C 1348.453125 566.753906 1347.601562 569.316406 1346.933594 571.953125 C 1346.792969 572.496094 1346.917969 572.988281 1347.179688 573.386719 C 1347.160156 573.515625 1347.136719 573.644531 1347.121094 573.777344 C 1346.085938 573.921875 1345 573.835938 1344.039062 573.464844 Z M 1352.886719 569.453125 C 1353.371094 568.84375 1353.875 568.25 1354.417969 567.695312 C 1354.164062 568.1875 1353.902344 568.675781 1353.609375 569.148438 C 1353.292969 569.652344 1352.945312 570.128906 1352.578125 570.574219 C 1352.679688 570.203125 1352.785156 569.828125 1352.886719 569.453125 Z M 1357.207031 559.164062 C 1357.46875 559.578125 1357.320312 560.25 1357.109375 560.871094 C 1356.332031 561.335938 1355.574219 561.824219 1354.855469 562.359375 C 1355.113281 561.417969 1355.378906 560.472656 1355.636719 559.53125 C 1355.652344 559.476562 1355.65625 559.425781 1355.664062 559.375 C 1356.027344 559.222656 1356.433594 559.085938 1356.808594 559.078125 C 1357.003906 559.074219 1357.15625 559.085938 1357.207031 559.164062 Z M 1474.832031 627.804688 C 1471.851562 630.453125 1469.339844 633.625 1467.414062 637.117188 C 1467.257812 637.285156 1467.105469 637.457031 1466.949219 637.628906 C 1467.839844 635.363281 1469.027344 633.21875 1470.535156 631.320312 C 1471.160156 630.53125 1471.300781 629.453125 1470.535156 628.683594 C 1469.886719 628.035156 1468.527344 627.890625 1467.898438 628.683594 C 1464.6875 632.738281 1462.488281 637.585938 1461.734375 642.714844 C 1461.554688 643.921875 1462.207031 645.027344 1463.53125 645.070312 C 1467.578125 645.203125 1471.484375 643.304688 1474.183594 640.335938 C 1477.117188 637.113281 1478.566406 632.957031 1477.945312 628.625 C 1477.730469 627.132812 1475.757812 626.980469 1474.832031 627.804688 Z M 1474.832031 627.804688 " fill-opacity="1" fill-rule="nonzero"/></g></svg>